<svg xmlns="http://www.w3.org/2000/svg" viewBox="0 0 412 294"><defs><style>.cls-1{fill:#fff;}</style></defs><title>Asset 1</title><g id="Layer_2" data-name="Layer 2"><g id="Layer_1-2" data-name="Layer 1"><g id="Layer_2-2" data-name="Layer 2"><g id="Capa_1" data-name="Capa 1"><path class="cls-1" d="M404.5,180.61a7.5,7.5,0,0,0-7.5,7.5v8.39A82.59,82.59,0,0,1,314.5,279H97.5A82.59,82.59,0,0,1,15,196.5V22.5A7.5,7.5,0,0,1,22.5,15H76V30.5A27.54,27.54,0,0,0,103.5,58h22.31a7.5,7.5,0,0,0,0-15H103.5A12.52,12.52,0,0,1,91,30.5V15H321V30.5A12.52,12.52,0,0,1,308.5,43H160.87a7.5,7.5,0,0,0,0,15H308.5A27.54,27.54,0,0,0,336,30.5V15h53.5a7.5,7.5,0,0,1,7.5,7.5V152.62a7.5,7.5,0,0,0,15,0V22.5A22.52,22.52,0,0,0,389.5,0H22.5A22.52,22.52,0,0,0,0,22.5v174A97.61,97.61,0,0,0,97.5,294h217A97.61,97.61,0,0,0,412,196.5v-8.39A7.5,7.5,0,0,0,404.5,180.61Z"/><path class="cls-1" d="M183.5,125.43a22.5,22.5,0,1,0,22.5-22.5A22.5,22.5,0,0,0,183.5,125.43Zm30,0a7.5,7.5,0,1,1-7.5-7.5A7.5,7.5,0,0,1,213.5,125.43Z"/></g></g></g></g></svg>