<svg xmlns="http://www.w3.org/2000/svg" viewBox="0 0 412 218"><defs><style>.cls-1{fill:#fff;}</style></defs><title>Asset 3</title><g id="Layer_2" data-name="Layer 2"><g id="Capa_1" data-name="Capa 1"><path class="cls-1" d="M16.65,128.7a214.69,214.69,0,0,1,32,22,85,85,0,0,0,63.89,18.69V218h15V158.05a46.52,46.52,0,0,0-23.85-40.6,7.5,7.5,0,0,0-7.3,13.1,31.49,31.49,0,0,1,15.91,23.75,69.67,69.67,0,0,1-54.13-15.18A231.29,231.29,0,0,0,24,115.61a17.51,17.51,0,0,1-9-15.28V69.67a17.51,17.51,0,0,1,9-15.28A207.63,207.63,0,0,0,57.14,31.7,69.52,69.52,0,0,1,94.59,15.44,7.5,7.5,0,1,0,92.91.54a84.49,84.49,0,0,0-45.5,19.74,191.61,191.61,0,0,1-30.76,21A32.53,32.53,0,0,0,0,69.67v30.66A32.51,32.51,0,0,0,16.65,128.7Z"/><path class="cls-1" d="M126.2,19.17a70.61,70.61,0,0,1,46.28,64.15c.06,1.56,0,133.31,0,134.68h15c0-2.37.05-132.74,0-135-.81-34.66-23.37-66-56.14-77.89a7.5,7.5,0,0,0-5.13,14.1Z"/><path class="cls-1" d="M395.35,41.3a192.48,192.48,0,0,1-30.76-21A85.09,85.09,0,0,0,224.52,83c-.07,1.61,0,133.6,0,135h75V169.41A85,85,0,0,0,353.1,158a7.5,7.5,0,1,0-7.71-12.87A69.8,69.8,0,0,1,309.5,155a70.77,70.77,0,0,1-9.77-.7,31.52,31.52,0,0,1,15.92-23.75,7.5,7.5,0,0,0-7.3-13.1,46.52,46.52,0,0,0-23.85,40.6V218h-45V86.28c0-.46,0,.23,0-3,.88-37.39,32-68,69.45-68.31a69.79,69.79,0,0,1,45.88,16.7A207.19,207.19,0,0,0,388,54.39a17.53,17.53,0,0,1,9,15.28v30.66a17.53,17.53,0,0,1-9,15.28c-4,2.21-9.12,5.25-15,9.2a7.5,7.5,0,0,0,4.19,13.72h0a7.49,7.49,0,0,0,4.18-1.28c3.33-2.24,8.94-5.77,14-8.55A32.52,32.52,0,0,0,412,100.33V69.67A32.53,32.53,0,0,0,395.35,41.3Z"/><path class="cls-1" d="M142.94,79.14c1.92,2.66,5.48,5.27,10.2,2.92a7.49,7.49,0,0,0,2.91-10.2l-15-27a7.5,7.5,0,0,0-13.11,7.28Z"/><path class="cls-1" d="M270.94,44.86l-15,27a7.51,7.51,0,0,0,2.92,10.2c2.44,1.56,7.7,1.17,10.19-2.92l15-27a7.5,7.5,0,0,0-13.11-7.28Z"/><circle class="cls-1" cx="364.02" cy="84.58" r="7.49"/><circle class="cls-1" cx="48.64" cy="84.51" r="7.49"/></g></g></svg>